<?xml version="1.0" encoding="utf-8"?>
<!-- Generator: Adobe Illustrator 16.0.0, SVG Export Plug-In . SVG Version: 6.00 Build 0)  -->
<!DOCTYPE svg PUBLIC "-//W3C//DTD SVG 1.1//EN" "http://www.w3.org/Graphics/SVG/1.1/DTD/svg11.dtd">
<svg version="1.1" id="Calque_1" xmlns="http://www.w3.org/2000/svg" xmlns:xlink="http://www.w3.org/1999/xlink" x="0px" y="0px"
	 width="940px" height="788px" viewBox="0 0 940 788" enable-background="new 0 0 940 788" xml:space="preserve">
<g>
	<g>
		<path fill-rule="evenodd" clip-rule="evenodd" fill="#FFFFFF" d="M157,675c0-186.667,0-373.333,0-560c209.333,0,418.666,0,628,0
			c0,186.667,0,373.333,0,560C575.666,675,366.333,675,157,675z M291.862,357.861c-0.155,7.615,3.272,13.752,7.957,19.39
			c17.239,20.744,34.167,41.755,51.755,62.199c43.544,50.617,87.415,100.953,131.055,151.488c3.061,3.544,5.335,4.22,9.477,1.361
			c55.789-38.498,104.783-84.174,146.354-137.759c4.738-6.106,4.679-6.026-0.402-11.93c-19.554-22.715-38.948-45.565-58.597-68.197
			c-26.854-30.93-53.783-61.797-80.905-92.491c-7.942-8.987-15.769-7.97-22.638,2.111c-1.028,1.51-1.779,3.243-2.975,4.592
			c-0.89,1.002-2.23,2.069-3.477,2.217c-13.29,1.576-25.573,5.546-36.091,14.195c-0.921,0.759-2.672,0.896-3.966,0.739
			c-3.674-0.447-7.694-2.505-10.886-1.569c-7.734,2.268-12.563-0.393-17.106-6.324c-3.095-4.04-7.051-4.694-12.292-1.983
			c-7.804,4.037-16.623,3.629-23.66-1.462c-4.197-3.037-6.393-2.753-9.751,0.071c-18.602,15.641-37.315,31.149-55.857,46.859
			C294.882,345.587,291.715,351,291.862,357.861z M444.581,257.533c1.398,2.239,2.476,6.015,4.263,6.387
			c3.345,0.697,5.362-1.975,6.468-5.627c0.968-3.197,2.806-6.817,5.389-8.7c5.949-4.336,12.583-7.731,18.942-11.504
			c3.105-1.842,6.688-3.182,9.234-5.607c5.838-5.563,4.138-13.703-3.463-16.361c-9.411-3.291-18.115-1.167-25.383,5.552
			C449.848,231.085,447.163,243.701,444.581,257.533z M379.925,284.607c2.718-0.668,5.73-0.801,8.101-2.103
			c7.604-4.176,14.931-4.773,22.719-0.406c1.51,0.847,5.479,0.322,5.967-0.694c0.83-1.731,0.616-5.032-0.59-6.491
			c-6.312-7.639-14.673-12.571-24.17-14.93c-4.973-1.235-10.557-1.596-15.567-0.694c-6.383,1.148-9.76,7.963-8.713,14.831
			C368.645,280.506,372.915,284.038,379.925,284.607z M409.942,255.308c1.066,6.54,3.303,13.442,9.126,18.421
			c1.268,1.085,4.19,1.356,5.721,0.646c1.164-0.54,2.342-3.761,1.761-4.871c-2.314-4.421-1.172-8.154,0.686-12.282
			c1.704-3.788,1.717-7.827-1.64-11.025c-2.999-2.856-6.583-2.97-10.186-1.441C411.175,246.551,409.955,250.209,409.942,255.308z"/>
		<path fill-rule="evenodd" clip-rule="evenodd" d="M291.859,357.858c-0.144-6.858,3.023-12.271,8-16.489
			c18.542-15.71,37.255-31.219,55.857-46.859c3.358-2.824,5.554-3.108,9.751-0.071c7.037,5.091,15.855,5.499,23.66,1.462
			c5.241-2.711,9.197-2.057,12.292,1.983c4.543,5.932,9.372,8.592,17.106,6.324c3.192-0.936,7.212,1.122,10.886,1.569
			c1.294,0.157,3.044,0.02,3.966-0.739c10.518-8.649,22.801-12.619,36.091-14.195c1.246-0.147,2.587-1.215,3.477-2.217
			c1.195-1.349,1.946-3.082,2.975-4.592c6.869-10.081,14.695-11.099,22.638-2.111c27.122,30.694,54.052,61.562,80.905,92.491
			c19.648,22.632,39.043,45.482,58.597,68.197c5.081,5.903,5.141,5.823,0.402,11.93c-41.571,53.585-90.565,99.261-146.354,137.759
			c-4.142,2.858-6.416,2.183-9.477-1.361c-43.641-50.535-87.511-100.871-131.055-151.488
			c-17.587-20.444-34.516-41.455-51.755-62.199C295.134,371.613,291.708,365.477,291.859,357.858z M635.701,448.791
			c-0.716-0.923-1.098-1.463-1.525-1.962c-21.682-25.294-43.246-50.688-65.083-75.847c-24.786-28.557-49.767-56.946-74.785-85.301
			c-5.116-5.798-8.284-5.436-13.071,0.683c-0.918,1.173-1.814,2.425-2.405,3.778c-1.977,4.524-4.62,6.699-10.262,6.908
			c-11.683,0.432-22.292,4.821-31.451,12.359c-3.563,2.933-7.198,4.732-11.562,0.952c-1.159-1.005-3.735-1.526-5.104-0.95
			c-9.949,4.192-17.267,1.318-23.033-7.445c-0.675-1.025-3.686-1.563-4.985-0.963c-9.82,4.534-19.516,3.613-28.907-0.71
			c-2.999-1.381-4.693-1.191-7.009,0.766c-16.79,14.191-33.687,28.255-50.481,42.44c-10.676,9.019-11.563,17.968-2.808,28.946
			c7.684,9.637,15.417,19.242,23.406,28.625c43.73,51.368,87.496,102.706,131.373,153.949c9.616,11.229,19.73,22.033,29.728,33.16
			C544.636,549.428,593.769,503.236,635.701,448.791z"/>
		<path fill-rule="evenodd" clip-rule="evenodd" d="M444.581,257.533c2.582-13.832,5.267-26.448,15.45-35.861
			c7.269-6.719,15.972-8.843,25.383-5.552c7.601,2.658,9.301,10.799,3.463,16.361c-2.547,2.426-6.129,3.766-9.234,5.607
			c-6.359,3.772-12.993,7.168-18.942,11.504c-2.583,1.883-4.421,5.503-5.389,8.7c-1.105,3.652-3.123,6.324-6.468,5.627
			C447.057,263.548,445.979,259.772,444.581,257.533z M478.971,220.631c-13.628-0.35-27.435,15.335-25.411,26.78
			c6.071-4.401,12.441-9.021,17.151-12.437C473.926,229.393,476.328,225.22,478.971,220.631z"/>
		<path fill-rule="evenodd" clip-rule="evenodd" d="M379.925,284.607c-7.01-0.569-11.28-4.102-12.254-10.487
			c-1.047-6.868,2.331-13.683,8.713-14.831c5.01-0.901,10.594-0.541,15.567,0.694c9.497,2.358,17.858,7.291,24.17,14.93
			c1.206,1.459,1.42,4.76,0.59,6.491c-0.488,1.017-4.457,1.541-5.967,0.694c-7.788-4.367-15.114-3.77-22.719,0.406
			C385.655,283.807,382.643,283.939,379.925,284.607z M374.521,276.1c3.35,4.348,7.786,2.688,12.064,0.87
			c6.172-2.624,12.186-5.8,19.334-2.846c0.104-0.48,0.207-0.96,0.31-1.44c-5.646-2.796-11.292-5.592-15.192-7.523
			C384.598,269.426,379.646,272.705,374.521,276.1z"/>
		<path fill-rule="evenodd" clip-rule="evenodd" d="M409.942,255.308c0.012-5.099,1.233-8.757,5.468-10.553
			c3.603-1.528,7.187-1.415,10.186,1.441c3.357,3.198,3.344,7.237,1.64,11.025c-1.857,4.128-3,7.861-0.686,12.282
			c0.581,1.11-0.598,4.331-1.761,4.871c-1.531,0.71-4.453,0.438-5.721-0.646C413.245,268.75,411.009,261.848,409.942,255.308z
			 M418.241,263.239c0.907-4.347,5.692-7.711,3.648-12.558c-1.967,2.439-3.712,4.604-5.712,7.085
			C416.75,259.289,417.496,261.265,418.241,263.239z"/>
		<path fill-rule="evenodd" clip-rule="evenodd" fill="#FFFFFF" d="M635.701,448.791c-41.933,54.445-91.065,100.637-147.965,139.39
			c-9.998-11.127-20.112-21.931-29.728-33.16c-43.876-51.243-87.642-102.581-131.373-153.949
			c-7.989-9.383-15.722-18.988-23.406-28.625c-8.754-10.979-7.868-19.928,2.808-28.946c16.794-14.186,33.692-28.249,50.481-42.44
			c2.316-1.957,4.01-2.146,7.009-0.766c9.391,4.323,19.086,5.244,28.907,0.71c1.299-0.6,4.31-0.063,4.985,0.963
			c5.767,8.764,13.084,11.638,23.033,7.445c1.369-0.576,3.945-0.055,5.104,0.95c4.363,3.78,7.998,1.98,11.562-0.952
			c9.159-7.538,19.768-11.928,31.451-12.359c5.642-0.209,8.285-2.384,10.262-6.908c0.591-1.354,1.487-2.605,2.405-3.778
			c4.787-6.118,7.955-6.48,13.071-0.683c25.019,28.354,49.999,56.744,74.785,85.301c21.837,25.158,43.401,50.553,65.083,75.847
			C634.604,447.328,634.985,447.868,635.701,448.791z M314.01,354.596c-0.069,12.093,5.485,25.877,13.269,36.299
			c30.697,41.104,62.439,81.383,96.986,119.326c19.614,21.543,40.24,42.165,60.407,63.204c1.684,1.757,3.205,2.983,6.01,1.591
			c28.198-14.007,53.994-31.49,76.867-53.148c20.781-19.677,38.391-41.952,53.431-66.287c4.102-6.636,4.149-6.525-0.763-12.843
			c-39.188-50.396-81.182-98.357-125.248-144.525c-4.229-4.431-4.314-4.401-7.818,0.347c-0.956,1.296-2.293,2.563-3.739,3.197
			c-3.623,1.588-7.395,2.847-11.132,4.165c-6.082,2.144-9.864,7.394-8.907,13.334c0.546,3.393,1.844,6.706,3.121,9.93
			c2.138,5.397,4.569,10.678,6.769,16.052c0.324,0.79,0.406,2.362-0.004,2.625c-0.807,0.515-2.184,0.739-3.064,0.401
			c-1.51-0.578-3.021-1.473-4.18-2.598c-4.655-4.52-9.082-9.276-13.788-13.739c-2.02-1.916-4.347-3.674-6.833-4.896
			c-4.73-2.326-8.401-0.921-8.872,4.131c-0.426,4.578,0.904,9.357,1.74,13.997c0.379,2.102,2.959,4.589-0.287,5.849
			c-1.52,0.59-4.299-0.577-5.843-1.792c-7.029-5.532-13.654-11.583-20.744-17.031c-8.48-6.517-17.277-12.622-25.967-18.863
			c-0.645-0.463-1.533-0.584-2.307-0.867c-5.09-1.861-10.338-3.393-15.213-5.708c-3.059-1.452-4.922-1.516-7.28,1.127
			c-11.233,12.593-23.479,24.04-38.044,32.808C316.454,344.364,314.174,350.235,314.01,354.596z"/>
		<path fill-rule="evenodd" clip-rule="evenodd" fill="#FFFFFF" d="M478.971,220.631c-2.643,4.589-5.045,8.762-8.26,14.344
			c-4.71,3.415-11.081,8.035-17.151,12.437C451.536,235.966,465.342,220.281,478.971,220.631z"/>
		<path fill-rule="evenodd" clip-rule="evenodd" fill="#FFFFFF" d="M374.521,276.1c5.125-3.395,10.076-6.674,16.516-10.939
			c3.9,1.932,9.546,4.728,15.192,7.523c-0.104,0.48-0.207,0.96-0.31,1.44c-7.148-2.954-13.162,0.222-19.334,2.846
			C382.308,278.788,377.872,280.447,374.521,276.1z"/>
		<path fill-rule="evenodd" clip-rule="evenodd" fill="#FFFFFF" d="M418.241,263.239c-0.745-1.975-1.49-3.95-2.064-5.473
			c2-2.48,3.746-4.646,5.712-7.085C423.933,255.528,419.148,258.893,418.241,263.239z"/>
		<path fill-rule="evenodd" clip-rule="evenodd" d="M314.01,354.596c0.164-4.36,2.443-10.231,8.565-13.916
			c14.566-8.768,26.811-20.215,38.044-32.808c2.358-2.643,4.222-2.579,7.28-1.127c4.875,2.315,10.123,3.847,15.213,5.708
			c0.774,0.283,1.663,0.404,2.307,0.867c8.69,6.241,17.487,12.347,25.967,18.863c7.09,5.448,13.715,11.499,20.744,17.031
			c1.544,1.215,4.323,2.382,5.843,1.792c3.246-1.26,0.666-3.747,0.287-5.849c-0.836-4.64-2.167-9.419-1.74-13.997
			c0.471-5.052,4.142-6.457,8.872-4.131c2.486,1.222,4.813,2.979,6.833,4.896c4.707,4.463,9.133,9.22,13.788,13.739
			c1.159,1.125,2.67,2.02,4.18,2.598c0.881,0.338,2.258,0.113,3.064-0.401c0.41-0.263,0.328-1.835,0.004-2.625
			c-2.2-5.374-4.631-10.654-6.769-16.052c-1.276-3.224-2.574-6.537-3.121-9.93c-0.957-5.94,2.825-11.19,8.907-13.334
			c3.737-1.318,7.509-2.577,11.132-4.165c1.446-0.635,2.783-1.901,3.739-3.197c3.504-4.748,3.59-4.777,7.818-0.347
			c44.066,46.168,86.061,94.129,125.248,144.525c4.912,6.317,4.864,6.207,0.763,12.843c-15.04,24.335-32.649,46.61-53.431,66.287
			c-22.873,21.658-48.669,39.142-76.867,53.148c-2.805,1.393-4.326,0.166-6.01-1.591c-20.167-21.039-40.792-41.661-60.407-63.204
			c-34.547-37.943-66.289-78.222-96.986-119.326C319.496,380.473,313.941,366.688,314.01,354.596z M364.304,312.396
			c-11.422,12.458-23.844,24.202-38.732,33.072c-4.884,2.91-6.089,7.69-5.717,12.953c0.739,10.441,5.039,19.562,11.119,27.834
			c7.883,10.727,15.958,21.316,24.112,31.84c40.33,52.049,83.111,101.941,130.208,148.049c2.788,2.73,4.711,2.815,8.07,1.077
			c21.063-10.899,40.691-23.861,58.768-39.238c26.375-22.438,47.941-48.857,65.924-78.59
			c-39.401-51.237-81.867-99.772-126.404-146.37c-2.469,1.637-4.436,3.197-6.627,4.322c-2.19,1.125-4.559,1.97-6.928,2.669
			c-9.486,2.797-11.077,6.105-7.135,15.312c2.547,5.946,5.604,11.726,7.532,17.862c0.864,2.748,0.62,7.744-1.081,8.946
			c-2.439,1.725-6.68,1.145-10.138,1.06c-1.288-0.032-2.722-1.25-3.779-2.253c-3.856-3.659-7.532-7.507-11.372-11.184
			c-2.946-2.821-6.035-5.491-9.314-8.458c-3.321,5.777,0.274,9.691,1.62,13.931c1.149,3.618,1.965,7.123-1.79,9.865
			c-3.892,2.842-7.966,3.528-11.953,0.51c-4.884-3.698-9.517-7.725-14.314-11.539c-7.406-5.89-14.75-11.866-22.336-17.516
			c-4.191-3.121-8.61-6.104-13.314-8.326C375.696,315.849,370.213,314.441,364.304,312.396z"/>
		<path fill-rule="evenodd" clip-rule="evenodd" fill="#FFFFFF" d="M364.304,312.396c5.909,2.046,11.393,3.453,16.419,5.828
			c4.705,2.223,9.123,5.205,13.314,8.326c7.586,5.649,14.93,11.626,22.336,17.516c4.797,3.814,9.43,7.841,14.314,11.539
			c3.986,3.019,8.061,2.332,11.953-0.51c3.754-2.742,2.938-6.247,1.79-9.865c-1.346-4.239-4.941-8.153-1.62-13.931
			c3.279,2.967,6.368,5.637,9.314,8.458c3.839,3.677,7.516,7.524,11.372,11.184c1.058,1.003,2.492,2.221,3.779,2.253
			c3.458,0.085,7.699,0.665,10.138-1.06c1.701-1.202,1.945-6.198,1.081-8.946c-1.929-6.137-4.985-11.916-7.532-17.862
			c-3.942-9.206-2.351-12.515,7.135-15.312c2.369-0.699,4.737-1.544,6.928-2.669c2.191-1.125,4.158-2.686,6.627-4.322
			c44.537,46.598,87.003,95.133,126.404,146.37c-17.982,29.732-39.549,56.151-65.924,78.59
			c-18.076,15.377-37.705,28.339-58.768,39.238c-3.359,1.738-5.282,1.653-8.07-1.077c-47.097-46.107-89.878-96-130.208-148.049
			c-8.154-10.523-16.229-21.113-24.112-31.84c-6.08-8.272-10.38-17.393-11.119-27.834c-0.372-5.263,0.833-10.043,5.717-12.953
			C340.459,336.598,352.882,324.854,364.304,312.396z M361.149,415.738c0.604-0.603,1.208-1.206,1.811-1.81
			c0.331-0.042,0.661-0.083,0.991-0.127c20.073-2.689,40.146-5.378,60.219-8.068c21.72-2.911,43.442-5.806,65.158-8.742
			c18.751-2.536,37.504-5.056,56.225-7.802c1.625-0.238,3.01-2.114,4.506-3.229c-1.742-0.68-3.562-2.097-5.211-1.92
			c-10.396,1.115-20.755,2.568-31.123,3.938c-21.065,2.785-42.13,5.58-63.193,8.384c-21.555,2.869-43.107,5.759-64.661,8.632
			c-7.733,1.031-15.489,1.924-23.185,3.182c-1.249,0.204-2.962,1.873-3.156,3.075C359.308,412.624,360.546,414.232,361.149,415.738z
			 M339.741,386.665c23.328-3.104,45.72-6.077,68.11-9.063c21.401-2.854,42.8-5.724,64.2-8.586
			c17.447-2.334,34.903-4.607,52.323-7.127c1.308-0.189,2.361-2.135,3.532-3.265c-1.482-0.735-2.988-2.131-4.442-2.078
			c-3.797,0.139-7.57,0.923-11.355,1.429c-21.234,2.838-42.468,5.67-63.703,8.503c-21.238,2.834-42.479,5.653-63.714,8.502
			c-14.652,1.965-29.308,3.902-43.931,6.065c-1.361,0.201-2.495,1.941-3.735,2.968C338.071,385.032,339.115,386.053,339.741,386.665
			z M409.393,478.385c8.524-1.202,15.915-2.305,23.322-3.278c26.167-3.438,52.346-6.786,78.508-10.259
			c26.822-3.56,53.639-7.17,80.427-10.969c1.81-0.256,3.368-2.274,5.044-3.474c-1.95-0.708-3.963-2.15-5.84-1.991
			c-6.605,0.562-13.163,1.685-19.742,2.572c-21.219,2.865-42.438,5.733-63.661,8.574c-18.593,2.489-37.192,4.93-55.785,7.417
			c-13.983,1.87-27.974,3.695-41.921,5.801c-1.388,0.21-2.502,2.234-3.743,3.416C407.346,477.063,408.69,477.932,409.393,478.385z
			 M390.659,445.051c12.733-1.755,24.407-3.419,36.096-4.964c23.708-3.135,47.431-6.171,71.138-9.31
			c24.361-3.226,48.723-6.454,73.053-9.894c2.761-0.39,7.977,0.609,7.475-3.6c-0.552-4.627-5.475-2.274-8.357-1.947
			c-11.713,1.326-23.379,3.073-35.063,4.649c-18.761,2.531-37.521,5.062-56.283,7.571c-18.6,2.487-37.202,4.961-55.805,7.419
			c-10.536,1.393-21.094,2.639-31.597,4.244c-1.259,0.192-2.237,2.229-3.345,3.412C389.046,443.602,390.123,444.569,390.659,445.051
			z M436.911,509.231c1.939-0.273,2.926-0.399,3.909-0.554c22.62-3.554,45.238-7.125,67.861-10.661
			c25.903-4.05,51.818-8.022,77.696-12.226c1.447-0.234,2.603-2.263,3.895-3.455c-1.593-0.748-3.305-2.326-4.759-2.116
			c-15.274,2.196-30.507,4.676-45.751,7.084c-24.58,3.884-49.158,7.79-73.742,11.652c-9.345,1.469-18.727,2.715-28.033,4.391
			c-1.481,0.267-2.648,2.271-3.961,3.473C435.139,507.75,436.251,508.681,436.911,509.231z M535.844,523.009
			c-19.95,1.914-41.283,3.909-62.59,6.142c-1.184,0.124-2.162,2.211-3.235,3.385c1.445,0.738,2.954,2.221,4.325,2.104
			c16.877-1.451,33.736-3.113,50.596-4.775c4.957-0.488,9.926-0.987,14.825-1.85c1.198-0.211,2.143-1.869,3.204-2.862
			c-1.25-0.771-2.453-1.637-3.77-2.265C538.67,522.635,537.892,522.906,535.844,523.009z M393.667,346.896
			c-2.113,0.096-2.785,0.075-3.443,0.163c-19.902,2.657-39.814,5.256-59.687,8.121c-1.635,0.236-3.006,2.296-4.5,3.508
			c1.766,0.739,3.603,2.24,5.286,2.084c6.934-0.646,13.818-1.821,20.727-2.751c13.487-1.814,26.991-3.509,40.451-5.502
			c1.583-0.234,2.936-2.029,4.395-3.102C395.531,348.352,394.167,347.286,393.667,346.896z M503.125,320.752
			c-8.109,0.892-14.906,1.486-21.639,2.503c-1.392,0.21-2.545,1.99-3.809,3.047c1.486,0.896,3.041,2.652,4.447,2.54
			c6.783-0.542,13.553-1.429,20.262-2.573c1.537-0.262,2.816-2.028,4.213-3.103C505.171,322.173,503.742,321.181,503.125,320.752z"
			/>
		<path fill-rule="evenodd" clip-rule="evenodd" d="M361.149,415.738c-0.604-1.506-1.842-3.114-1.62-4.487
			c0.194-1.202,1.908-2.871,3.156-3.075c7.696-1.258,15.451-2.15,23.185-3.182c21.554-2.873,43.106-5.763,64.661-8.632
			c21.063-2.804,42.128-5.599,63.193-8.384c10.368-1.37,20.728-2.823,31.123-3.938c1.649-0.177,3.469,1.24,5.211,1.92
			c-1.496,1.115-2.881,2.991-4.506,3.229c-18.721,2.746-37.474,5.266-56.225,7.802c-21.716,2.937-43.438,5.831-65.158,8.742
			c-20.073,2.69-40.146,5.379-60.219,8.068c-0.33,0.044-0.66,0.085-0.991,0.127C362.357,414.532,361.753,415.136,361.149,415.738z"
			/>
		<path fill-rule="evenodd" clip-rule="evenodd" d="M339.741,386.665c-0.626-0.612-1.67-1.633-2.714-2.652
			c1.24-1.026,2.374-2.767,3.735-2.968c14.623-2.163,29.279-4.101,43.931-6.065c21.236-2.849,42.476-5.668,63.714-8.502
			c21.234-2.833,42.468-5.665,63.703-8.503c3.785-0.506,7.559-1.29,11.355-1.429c1.454-0.053,2.96,1.343,4.442,2.078
			c-1.171,1.13-2.225,3.075-3.532,3.265c-17.42,2.52-34.876,4.793-52.323,7.127c-21.4,2.862-42.799,5.731-64.2,8.586
			C385.461,380.588,363.069,383.562,339.741,386.665z"/>
		<path fill-rule="evenodd" clip-rule="evenodd" d="M409.393,478.385c-0.702-0.453-2.047-1.321-3.392-2.19
			c1.241-1.182,2.355-3.206,3.743-3.416c13.948-2.105,27.938-3.931,41.921-5.801c18.593-2.487,37.192-4.928,55.785-7.417
			c21.223-2.841,42.442-5.709,63.661-8.574c6.579-0.888,13.137-2.011,19.742-2.572c1.877-0.159,3.89,1.283,5.84,1.991
			c-1.676,1.199-3.234,3.218-5.044,3.474c-26.788,3.799-53.604,7.409-80.427,10.969c-26.162,3.473-52.341,6.82-78.508,10.259
			C425.307,476.08,417.917,477.183,409.393,478.385z"/>
		<path fill-rule="evenodd" clip-rule="evenodd" d="M390.659,445.051c-0.536-0.481-1.613-1.449-2.689-2.418
			c1.108-1.183,2.086-3.22,3.345-3.412c10.503-1.605,21.061-2.852,31.597-4.244c18.604-2.458,37.205-4.932,55.805-7.419
			c18.762-2.51,37.522-5.04,56.283-7.571c11.684-1.576,23.35-3.323,35.063-4.649c2.883-0.327,7.806-2.68,8.357,1.947
			c0.502,4.209-4.714,3.21-7.475,3.6c-24.33,3.439-48.691,6.668-73.053,9.894c-23.707,3.139-47.429,6.175-71.138,9.31
			C415.065,441.632,403.392,443.296,390.659,445.051z"/>
		<path fill-rule="evenodd" clip-rule="evenodd" d="M436.911,509.231c-0.659-0.551-1.772-1.481-2.885-2.412
			c1.313-1.201,2.48-3.206,3.961-3.473c9.306-1.676,18.688-2.922,28.033-4.391c24.583-3.862,49.162-7.769,73.742-11.652
			c15.244-2.408,30.477-4.888,45.751-7.084c1.454-0.21,3.166,1.368,4.759,2.116c-1.292,1.192-2.447,3.221-3.895,3.455
			c-25.878,4.203-51.793,8.176-77.696,12.226c-22.623,3.536-45.241,7.107-67.861,10.661
			C439.837,508.832,438.85,508.958,436.911,509.231z"/>
		<path fill-rule="evenodd" clip-rule="evenodd" d="M535.844,523.009c2.048-0.103,2.826-0.374,3.355-0.122
			c1.316,0.628,2.52,1.494,3.77,2.265c-1.062,0.993-2.006,2.651-3.204,2.862c-4.899,0.862-9.868,1.361-14.825,1.85
			c-16.859,1.662-33.719,3.324-50.596,4.775c-1.371,0.117-2.88-1.365-4.325-2.104c1.073-1.174,2.052-3.261,3.235-3.385
			C494.561,526.918,515.894,524.923,535.844,523.009z"/>
		<path fill-rule="evenodd" clip-rule="evenodd" d="M393.667,346.896c0.5,0.391,1.864,1.456,3.228,2.521
			c-1.459,1.072-2.812,2.867-4.395,3.102c-13.46,1.993-26.964,3.688-40.451,5.502c-6.909,0.93-13.792,2.105-20.727,2.751
			c-1.683,0.156-3.52-1.345-5.286-2.084c1.494-1.212,2.866-3.271,4.5-3.508c19.873-2.865,39.785-5.464,59.687-8.121
			C390.882,346.971,391.554,346.991,393.667,346.896z"/>
		<path fill-rule="evenodd" clip-rule="evenodd" d="M503.125,320.752c0.617,0.429,2.046,1.421,3.475,2.414
			c-1.396,1.074-2.676,2.841-4.213,3.103c-6.709,1.145-13.479,2.031-20.262,2.573c-1.406,0.112-2.961-1.645-4.447-2.54
			c1.264-1.057,2.417-2.837,3.809-3.047C488.219,322.238,495.016,321.644,503.125,320.752z"/>
	</g>
</g>
</svg>
